<svg xmlns="http://www.w3.org/2000/svg" xmlns:xlink="http://www.w3.org/1999/xlink" version="1.1" x="0px" y="0px" viewBox="0 0 100 125" enable-background="new 0 0 100 100" xml:space="preserve"><path d="M20.3755684,26.5311279h28.1021843c0.4097633,0,0.7423019-0.3325386,0.7423019-0.7423V11.5630198  c0-0.4097605-0.3325386-0.7423-0.7423019-0.7423H20.3755684c-0.4097595,0-0.7423,0.3325396-0.7423,0.7423v14.2258081  C19.6332684,26.1985893,19.9658089,26.5311279,20.3755684,26.5311279z M21.1178684,12.3053198h26.6175861v12.7412081H21.1178684  V12.3053198z M51.5222435,26.5311279h28.1021843c0.4102478,0,0.7423019-0.3325386,0.7423019-0.7423V11.5630198  c0-0.4097605-0.3320541-0.7423-0.7423019-0.7423H51.5222435c-0.410244,0-0.7422981,0.3325396-0.7422981,0.7423v14.2258081  C50.7799454,26.1985893,51.1119995,26.5311279,51.5222435,26.5311279z M52.2645454,12.3053198h26.6175804v12.7412081H52.2645454  V12.3053198z M45.4716301,59.3055649c0,0.8233833-0.6674881,1.4908752-1.4908142,1.4908752h-0.3317528  c-0.8233833,0-1.4908142-0.6674919-1.4908142-1.4908752V38.1654625c0-0.8233833,0.6674309-1.4908752,1.4908142-1.4908752h0.3317528  c0.8233261,0,1.4908142,0.6674919,1.4908142,1.4908752V59.3055649z M51.656662,59.3055649  c0,0.8233833-0.6674309,1.4908752-1.4908142,1.4908752h-0.3316956c-0.8233833,0-1.4908142-0.6674919-1.4908142-1.4908752V38.1654625  c0-0.8233833,0.6674309-1.4908752,1.4908142-1.4908752h0.3316956c0.8233833,0,1.4908142,0.6674919,1.4908142,1.4908752V59.3055649z   M57.8417511,59.3055649c0,0.8233833-0.6674309,1.4908752-1.4908142,1.4908752h-0.3316956  c-0.8233833,0-1.4908142-0.6674919-1.4908142-1.4908752V38.1654625c0-0.8233833,0.6674309-1.4908752,1.4908142-1.4908752h0.3316956  c0.8233833,0,1.4908142,0.6674919,1.4908142,1.4908752V59.3055649z M64.0268402,59.3055649  c0,0.8233833-0.6674309,1.4908752-1.4908142,1.4908752h-0.3317566c-0.8233223,0-1.4908142-0.6674919-1.4908142-1.4908752V38.1654625  c0-0.8233833,0.6674919-1.4908752,1.4908142-1.4908752h0.3317566c0.8233833,0,1.4908142,0.6674919,1.4908142,1.4908752V59.3055649z   M39.286541,59.3055649c0,0.8233833-0.6674881,1.4908752-1.4908142,1.4908752H37.463974  c-0.8233223,0-1.4908142-0.6674919-1.4908142-1.4908752V38.1654625c0-0.8233833,0.6674919-1.4908752,1.4908142-1.4908752h0.3317528  c0.8233261,0,1.4908142,0.6674919,1.4908142,1.4908752V59.3055649z M66.8316422,45.8133125  c0.3272476,0.7345772,0.7835083,1.4063148,1.3483429,1.9792747l0,0c2.5823822,2.6194916,6.924675,2.6195374,9.5070953,0l0,0  c3.7222366-3.7743111,1.5766068-10.379528-3.625145-11.2699127C68.9206238,35.6426315,64.6985779,41.0246544,66.8316422,45.8133125z   M75.9718018,38.3019218c3.3788147,2.150074,3.4921494,7.2076035,0.182991,9.4906349c0,0-0.000061,0-0.000061,0.000061  c-1.9170532,1.3220024-4.5253448,1.3220444-6.4424591,0c0-0.000061-0.000061-0.000061-0.0001221-0.000061  c-1.9663239-1.3565941-2.825737-3.8443184-2.2660522-6.1669922C68.2911758,38.1185493,72.788887,36.2765083,75.9718018,38.3019218z   M31.8203468,47.7925873C31.8203468,47.7925873,31.8202858,47.7925873,31.8203468,47.7925873  c4.084713-4.1434746,1.0303841-11.3654137-4.7534599-11.3654137c-5.783926,0-8.838995,7.2213783-4.7537308,11.3654137l0,0  c2.0359764,2.0652313,5.2632103,2.5784416,7.8344212,1.2353477C30.5491943,48.8181038,31.3316422,48.2884865,31.8203468,47.7925873z   M23.8453274,47.7926178c0-0.000061-0.000061-0.000061-0.000061-0.000061  c-4.4974899-3.1020203-2.2227402-10.3759727,3.2216206-10.3759727c5.4438896,0.0000038,7.718956,7.2739754,3.2215004,10.3759727  c0,0,0,0-0.000061,0.000061C28.3711185,49.114727,25.762661,49.1145248,23.8453274,47.7926178  C23.8453274,47.7925568,24.1215782,47.983078,23.8453274,47.7926178z M48.3619194,28.5031929h1.0719414l0.3306084-1.0188522  c0.0666046-0.2046394,0.4044533-0.2046394,0.4710579,0l0.3306084,1.0188522h1.0719414  c0.1071472,0,0.2017441,0.0690193,0.2355309,0.1713371c0.0328178,0.1018372-0.0038605,0.2133274-0.0897713,0.2765541  l-0.8673058,0.6298447l0.3315735,1.0188522c0.0328217,0.1023197-0.0028954,0.21381-0.0897713,0.2770348  c-0.0434341,0.0313721-0.0945969,0.0472984-0.1457558,0.0472984s-0.1018372-0.0159264-0.1452751-0.0472984L50,30.2469711  l-0.8668213,0.6298447c-0.0859108,0.0627441-0.2036743,0.0627441-0.2905502,0  c-0.0868759-0.0632248-0.1230736-0.174715-0.0902519-0.2765522l0.331089-1.0193348l-0.8668213-0.6298447  c-0.0868759-0.0632267-0.1230736-0.1747169-0.0902519-0.2765541C48.1596947,28.5722122,48.2547722,28.5031929,48.3619194,28.5031929  z M92.6339264,51.0360146c0.1604767-0.3011055,0.3342896-0.5847168,0.518898-0.8540306  c2.5544586-0.6403008,2.0243988-3.8252678,1.0054626-5.5357971c-1.1035767-1.852623-3.1422882-3.0206223-5.3008347-3.0206223  h-4.366684V10.5530357c0-1.9800291-1.610817-3.5908399-3.5907822-3.5908399H19.0999527  c-1.979969,0-3.5908403,1.6108108-3.5908403,3.5908399v31.0725288h-4.3665628c-2.2020264,0-4.2801323,1.217514-5.3667483,3.1312408  c-0.9795861,1.7252274-1.4286962,4.8735924,1.1326098,5.4441833c0.1691651,0.2480774,0.3310909,0.5055656,0.4798646,0.7806091  h10.841116c1.9491062,0,3.6167812,1.6636581,3.6167812,3.6168442v7.0640373h-0.9884453h-0.4936199V60.875412  c0-0.7552185-1.4843979-0.4171028-1.4844189-1.484417c-0.0000229-1.0681496,1.4844189-0.7120781,1.4844189-1.4844208v-3.3081322  c0-1.145504-0.9902592-2.1347771-2.134716-2.1347771H7.1598663c-1.1770983,0-2.1347761,0.9576797-2.1347761,2.1347771v3.3081322  c0,0.7551498,1.4844408,0.4170685,1.4844189,1.4844208c-0.0000219,1.068119-1.4844189,0.7120056-1.4844189,1.484417v5.9376755  c0,0.7551498,1.4844408,0.4170685,1.4844189,1.4844208c-0.0000219,1.0681229-1.4844189,0.7120056-1.4844189,1.4844208v5.9376755  c0,0.7551498,1.4844408,0.4170685,1.4844189,1.4844208c-0.0000219,1.0681152-1.4844189,0.7120056-1.4844189,1.4844131v5.9376755  c0,0.7551498,1.4844408,0.4170761,1.4844189,1.4844208c-0.0000219,1.0681229-1.4844189,0.7120056-1.4844189,1.4844208v3.308136  c0,1.1770935,0.9576778,2.1347122,2.1347761,2.1347122h11.0695248c1.1770973,0,2.134716-0.9576187,2.134716-2.1347122v-3.308136  c0-0.7552185-1.4843979-0.4171066-1.4844189-1.4844208c-0.0000229-1.0681458,1.4844189-0.7120743,1.4844189-1.4844208v-5.9376755  c0-0.7619553-1.5005646-0.4087067-1.4844189-1.4844131c0.0158348-1.05513,1.4844189-0.7262039,1.4844189-1.4844208v-5.3980865  h0.4936199h0.9884453v6.3087082h6.1491318c0.7537632,0,1.4961243,0.1838837,2.1627693,0.5357285l2.7218475,1.4365158  c0.4704552,0.2483215,0.9944191,0.3780899,1.5263481,0.3780899h3.0321236c0.6044502,0,0.6952209,0.4547424,0.9772263,0.8610306  l1.1737785,1.6918335c0.4157944,0.5993118,1.0989723,0.9567719,1.8284225,0.9567719h6.1283798  c0.7294464,0,1.4125633-0.35746,1.8284187-0.9567719l1.1737785-1.6918335  c0.2822571-0.4071426,0.3616867-0.8610306,0.9772263-0.8610306h8.9066353c0.51371,0,1.0238609-0.0859756,1.5092735-0.2542953  l5.2650566-1.826004c0.5155182-0.1787567,1.0572815-0.2700348,1.6029053-0.2700348h9.3443298v-6.3087082h0.9879684h0.4941025  v5.3980865c0,0.7438583,1.4689178,0.4282074,1.4844131,1.4844208c0.0157852,1.0754395-1.4844131,0.7062836-1.4844131,1.4844131  v5.9376755c0,0.7551498,1.484436,0.4170761,1.4844131,1.4844208c-0.0000153,1.0681229-1.4844131,0.7120056-1.4844131,1.4844208  v3.308136c0,1.1770935,0.9576721,2.1347122,2.1347733,2.1347122h11.0694656c1.1770935,0,2.1347733-0.9576187,2.1347733-2.1347122  v-3.308136c0-0.7552185-1.4843979-0.4171066-1.4844208-1.4844208c-0.0000153-1.0681458,1.4844208-0.7120743,1.4844208-1.4844208  v-5.9376755c0-0.7552185-1.4843979-0.417099-1.4844208-1.4844131c-0.0000153-1.0681534,1.4844208-0.7120819,1.4844208-1.4844208  V69.781929c0-0.7552185-1.4843979-0.4171066-1.4844208-1.4844208c-0.0000153-1.0681534,1.4844208-0.7120819,1.4844208-1.4844208  V60.875412c0-0.7552185-1.4843979-0.4171028-1.4844208-1.484417c-0.0000153-1.0681496,1.4844208-0.7120781,1.4844208-1.4844208  v-3.3081322c0-1.1770973-0.9576797-2.1347771-2.1347733-2.1347771H81.770668c-1.1439514,0-2.1347733,0.9889488-2.1347733,2.1347771  v3.3081322c0,0.7551498,1.484436,0.4170685,1.4844131,1.4844208c-0.0000153,1.068119-1.4844131,0.7120056-1.4844131,1.484417  v0.7870674h-0.4941025h-0.9879684v-7.0096207c0-1.9454117,1.6731033-3.6168442,3.6168442-3.6168442H92.6339264z   M11.7758932,63.1461105c0-0.2627945,0.2325926-0.4942207,0.4942236-0.4942207h75.4597626  c0.2620316,0,0.4932556,0.2337265,0.4932556,0.4942207v5.6917725c0,0.2726898-0.2210464,0.4942245-0.4932556,0.4942245H12.2701168  c-0.2726917,0-0.4942236-0.2215347-0.4942236-0.4942245V63.1461105z M8.5291758,45.179184  c0.6873198-0.6873207,1.6412392-1.0825005,2.6133738-1.0825005h5.8487492h0.0409641  c0.0917816,0.9325638,0.4503555,1.8858414,1.0266361,2.6309891l0.058157,0.0752907l0.3820095,0.4947052l0.3821297,0.4948883  l0.000061,0.000061H7.4975934H7.4466748v-0.000061C7.4466748,46.8332596,7.853178,45.8551788,8.5291758,45.179184z   M91.9694519,45.8133125c0.1925735,0.3021317,0.3341064,0.6362381,0.4328079,0.9896507  c0.0450668,0.1612625,0.0782471,0.3253593,0.1011734,0.4947052c0.0220795,0.1634941,0.0498886,0.3253593,0.0498886,0.4948883  v0.000061h-0.000061H81.1195297l0.0000534-0.000061l0.3822556-0.4948883l0.3820648-0.4947052l0.0581589-0.0752907  c0.028717-0.0372238,0.0486298-0.0798759,0.0762634-0.1178246c0.1826782-0.2509727,0.3374863-0.518116,0.4712372-0.7965355  c0.0088043-0.0183411,0.0157394-0.0374069,0.0243073-0.0558052c0.2444-0.5246925,0.3972168-1.0847931,0.4538651-1.6608238h0.0409622  h0.4932632h0.9888077h4.366684C90.168602,44.0966835,91.3133621,44.7839622,91.9694519,45.8133125z M25.6605358,53.9828339  c-0.54883-0.6893921-1.4548798-0.9149132-1.9952946-1.6140671l-0.2801723-0.3628235l-0.3821297-0.4948273L22.03965,50.2636719  l-0.9542389-1.2357368l-0.5721092-0.7408524l-0.3818283-0.4944649l-0.0000591-0.000061l-0.3821316-0.4948883l-0.3820095-0.4947052  l-0.5255337-0.6805229c-0.5368309-0.6954308-0.8610287-1.6350861-0.8610287-2.5145531v-0.7466431v-1.2356796v-3.5371437  c0-2.3878975,1.9810715-3.3828735,4.0363255-3.6275787c1.8095131-0.2154427,3.6254654-0.3783989,5.4416504-0.5256042  c4.772583-0.3868294,9.556591-0.6499939,14.3417969-0.8160782c9.786644-0.3396759,19.5792809-0.0292511,29.3422318,0.7068062  c2.1503601,0.1621208,4.3005447,0.3436394,6.4432297,0.5886993c2.165657,0.2476845,4.4323807,1.0489273,4.4323807,3.6737556  v3.5371437v1.2356796v0.7466431c0,0.8772125-0.3228226,1.8195686-0.8600693,2.5145531l-0.5255966,0.6805229l-0.3820648,0.4947052  l-0.3821945,0.4948883l-0.000061,0.000061l-0.3818283,0.4944649l-0.5721664,0.7408524l-0.954422,1.2357368l-0.9634094,1.2474442  l-0.3821259,0.4948273l-0.2805939,0.3633041c-0.8939819,1.1578522-2.5531693,1.3190002-2.5531693,3.1323318v6.1609001H26.2193718  v-6.1609001C26.2193718,54.9376144,26.0063457,54.4172096,25.6605358,53.9828339z M17.980711,10.5528545  c0-0.6172962,0.5019455-1.1192417,1.1192417-1.1192417h61.799614c0.6168137,0,1.1187592,0.5019455,1.1187592,1.1192417v24.7547741  c-0.7179871-0.9054298-1.7662811-1.5502968-2.9885101-1.7125854C73.2535858,32.8281288,59.9105263,31.973856,50,31.973856  s-23.2535858,0.8542728-29.030302,1.6211872c-1.2225266,0.1623497-2.2709999,0.8076973-2.988987,1.7137947V10.5528545z"/></svg>