<svg xmlns="http://www.w3.org/2000/svg" xmlns:xlink="http://www.w3.org/1999/xlink" version="1.1" x="0px" y="0px" viewBox="0 0 64 80" style="enable-background:new 0 0 64 64;" xml:space="preserve"><style type="text/css">
	.st0{display:none;}
	.st1{display:inline;}
	.st2{fill:none;stroke:#B3B3B3;stroke-width:0.1;stroke-miterlimit:10;}
</style><g class="st0"><g class="st1"><rect x="2" y="2" class="st2" width="60" height="60"/><line class="st2" x1="32" y1="2" x2="32" y2="62"/><line class="st2" x1="62" y1="32" x2="2" y2="32"/><line class="st2" x1="2" y1="2" x2="62" y2="62"/><rect x="10" y="10" class="st2" width="44" height="44"/><line class="st2" x1="62" y1="2" x2="2" y2="62"/><line class="st2" x1="2" y1="32" x2="32" y2="2"/><line class="st2" x1="32" y1="2" x2="62" y2="32"/><line class="st2" x1="62" y1="32" x2="32" y2="62"/><line class="st2" x1="32" y1="62" x2="2" y2="32"/><circle class="st2" cx="32" cy="32" r="21"/></g></g><circle cx="11" cy="7" r="1"/><circle cx="15" cy="7" r="1"/><circle cx="19" cy="7" r="1"/><path d="M62,23h-4V2H6v17H2v26h4v17h52V49h4V23z M56,4v6H8V4H56z M8,12h48v11H36v-4H8V12z M4,21h30v2h-6v2H8v2h20v4H8v2h20v4H8v2h20  v4h-7.2L16,48.4V43H4V21z M56,60H8V45h6v8.6l7.7-8.6H28v4h14.3l7.7,8.6V49h6V60z M60,47H48v5.4L43.2,47H30v-8v-2v-4v-2v-4v-2h30V47z  "/><rect x="34" y="29" width="22" height="2"/><rect x="34" y="35" width="22" height="2"/><rect x="34" y="41" width="22" height="2"/></svg>