<svg xmlns="http://www.w3.org/2000/svg" data-name="Layer 1" viewBox="0 0 100 125" x="0px" y="0px"><title>09</title><g data-name="Group"><path data-name="Compound Path" d="M90.27,74.21a13.19,13.19,0,1,0-17.57,0,16.25,16.25,0,0,0-3.8,3.44l-9.71-7.09A9.45,9.45,0,0,0,53,59.2V48.78H63.14a3,3,0,0,0,3-3v-6.9a16.12,16.12,0,0,0-7.35-13.51,13.19,13.19,0,1,0-17.57,0,16.12,16.12,0,0,0-7.35,13.52v6.9a3,3,0,0,0,3,3H47V59.2a9.45,9.45,0,0,0-6.2,11.36l-9.7,7.08a16.25,16.25,0,0,0-3.8-3.44,13.19,13.19,0,1,0-17.57,0A16.12,16.12,0,0,0,2.38,87.72v6.9a3,3,0,0,0,3,3H31.65a3,3,0,0,0,3-3v-6.9A16.07,16.07,0,0,0,33.94,83L44,75.62a9.46,9.46,0,0,0,11.89,0L66.06,83a16.08,16.08,0,0,0-.71,4.72v6.9a3,3,0,0,0,3,3H94.62a3,3,0,0,0,3-3v-6.9A16.12,16.12,0,0,0,90.27,74.21ZM50,8.38a7.19,7.19,0,1,1-7.19,7.19A7.19,7.19,0,0,1,50,8.38ZM39.86,38.88a10.14,10.14,0,0,1,20.27,0v3.9H39.86ZM18.52,57.22a7.19,7.19,0,1,1-7.19,7.18A7.19,7.19,0,0,1,18.52,57.22Zm10.14,34.4H8.38v-3.9a10.14,10.14,0,0,1,20.27,0ZM50,71.72a3.5,3.5,0,1,1,3.5-3.5A3.51,3.51,0,0,1,50,71.72Zm31.49-14.5A7.19,7.19,0,1,1,74.3,64.4,7.19,7.19,0,0,1,81.48,57.22Zm10.14,34.4H71.35v-3.9a10.14,10.14,0,0,1,20.27,0Z"/></g></svg>