<svg xmlns:rdf="http://www.w3.org/1999/02/22-rdf-syntax-ns#" xmlns="http://www.w3.org/2000/svg" xmlns:cc="http://creativecommons.org/ns#" xmlns:dc="http://purl.org/dc/elements/1.1/" version="1.1" x="0px" y="0px" viewBox="0 0 100 125"><g transform="translate(0,-952.36218)"><path style="baseline-shift:baseline;block-progression:tb;color:#000000;direction:ltr;text-indent:0;enable-background:accumulate;text-transform:none;" fill="#000" d="m16.573,969.6a0.80008,0.80008,0,0,0,-0.53125,0.46875l-2.6875,5.875a0.80008,0.80008,0,0,0,0.8125,1.125l0.3125-0.0312-1.3125,2.8438a0.80008,0.80008,0,0,0,0.8125,1.125l1.9375-0.15625,0.28125,4.6875c-2.4352,1.1808-4.7408,2.639-6.9062,4.4375-0.32726,0.2618-0.3868,0.79775-0.125,1.125,0.2618,0.32726,0.79775,0.38681,1.125,0.125,6.332-5.2589,13.999-7.6182,22.438-8.0312-0.15029,5.3411,1.9051,8.652,4.1875,11.062,2.1945,2.3177,4.4346,3.9276,5.3125,5.7813-9.3995,2.2595-20.088,7.8851-32.344,18.562a0.80845,0.80845,0,0,0,1.0625,1.2188c12.956-11.288,24.026-16.801,33.531-18.656,2.9704-0.5797,5.7883-0.7851,8.4688-0.7188a0.80008,0.80008,0,0,0,0.03125,0c5.3873,0.1381,10.194,1.4739,14.562,3.4688-3.7237,2.726-8.8147,5.958-13.688,9.8125-5.3494,4.2314-10.372,9.1637-12.75,15.062a0.80008,0.80008,0,1,0,1.4688,0.625c2.1994-5.4565,7.0281-10.282,12.281-14.438,5.1562-4.0786,10.661-7.535,14.531-10.469a0.80359,0.80359,0,0,0,0.0625,-0.031c0.04476-0.034,0.11194-0.06,0.15625-0.094a0.80359,0.80359,0,0,0,0.03125,-0.031,0.80008,0.80008,0,0,0,0.03125,-0.031,0.80359,0.80359,0,0,0,0.09375,-0.062,0.80008,0.80008,0,0,0,0,-0.031,0.80359,0.80359,0,0,0,0.03125,-0.031,0.80008,0.80008,0,0,0,0.03125,-0.031,0.80359,0.80359,0,0,0,0.03125,-0.031,0.80008,0.80008,0,0,0,0.03125,-0.125,0.80359,0.80359,0,0,0,0.03125,-0.031,0.80008,0.80008,0,0,0,-0.53125,-1.0312c-0.01683-0.01-0.04565,0.01-0.0625,0a0.80008,0.80008,0,0,0,-0.09375,-0.031c-2.0106-0.9781-4.1174-1.8366-6.3438-2.5l-0.0625-6.8125h2.9688a0.80008,0.80008,0,0,0,0.6875,-1.1875l-2.4062-4.2188h0.25c8.6911,2.6172,17.389,5.9012,25.562,9.0938,0.3927,0.15544,0.90706-0.0761,1.0625-0.46875,0.15544-0.3927-0.07605-0.87581-0.46875-1.0312-1.5438-0.60296-3.1078-1.2064-4.6875-1.8125a0.80008,0.80008,0,0,0,0.03125,-0.3125l-0.1875-4.6875,1.9375-0.0312a0.80008,0.80008,0,0,0,0.65625,-1.2188l-1.5938-2.6875h0.34375a0.80008,0.80008,0,0,0,0.65625,-1.1875l-3.2812-5.5625a0.80008,0.80008,0,0,0,-0.8125,-0.40625,0.80008,0.80008,0,0,0,-0.59375,0.4375l-3,5.7188a0.80008,0.80008,0,0,0,0.71875,1.1562h0.34375l-1.4688,2.75a0.80008,0.80008,0,0,0,0.71875,1.1875l1.75-0.0312-0.3125,3.3438c-5.2379-1.9593-10.603-3.878-16-5.5312l-4.375-7.6875a0.80008,0.80008,0,0,0,-0.8125,-0.40625,0.80008,0.80008,0,0,0,-0.59375,0.40625l-3,5.25c-4.4781-1.1005-8.9285-1.9707-13.281-2.4688-1.5834-0.18117-3.1324-0.29382-4.6875-0.375-0.05235-0.003-0.10393-0.0286-0.15625-0.0312-0.01029-0.00051-0.02096,0.00051-0.03125,0-0.06319-0.003-0.12436,0.003-0.1875,0-0.884-0.0413-1.78-0.0571-2.6562-0.0625-0.87628-0.005-1.7329-0.00055-2.5938,0.0312-4.6027,0.16983-9.0184,0.91229-13.156,2.3438l-0.65625-3.3438,1.7188-0.15625a0.80008,0.80008,0,0,0,0.625,-1.2188l-1.75-2.5938,0.3125-0.0312a0.80008,0.80008,0,0,0,0.59375,-1.25l-3.5938-5.375a0.80008,0.80008,0,0,0,-0.84375,-0.34375zm0.3125,2.4375,2.0312,3.0312-0.3125,0.0312a0.80008,0.80008,0,0,0,-0.59375,1.25l1.75,2.5938-1.3125,0.0937a0.80008,0.80008,0,0,0,-0.71875,0.96875l0.9375,4.4688c-0.30222,0.11948-0.60737,0.21616-0.90625,0.34375l-0.3125-4.875a0.80008,0.80008,0,0,0,-0.875,-0.75l-1.3438,0.0937,1.2812-2.8125a0.80008,0.80008,0,0,0,-0.8125,-1.125l-0.3125,0.0312,1.5-3.3438zm66.812,8.2812,1.8438,3.1562-0.3125,0a0.80008,0.80008,0,0,0,-0.65625,1.2188l1.5938,2.6875-1.375,0.0312a0.80008,0.80008,0,0,0,-0.78125,0.84375l0.21875,5.125c-0.31992-0.12168-0.64764-0.2536-0.96875-0.375l0.4375-4.6562a0.80008,0.80008,0,0,0,-0.8125,-0.875l-1.3125,0.0312,1.5-2.7812a0.80008,0.80008,0,0,0,-0.75,-1.1562h-0.34375l1.7188-3.25zm-23.062,0.90625,3.0625,5.375-1.0312,0a0.80008,0.80008,0,0,0,-0.6875,1.2188l2.4375,4.1875h-2.375a0.80008,0.80008,0,0,0,-0.8125,0.8125l0.03125,7.1562c-0.3711-0.0932-0.74805-0.16725-1.125-0.25v-6.9062a0.80008,0.80008,0,0,0,-0.78125,-0.8125h-2.5312l2.4375-4.1875a0.80008,0.80008,0,0,0,-0.6875,-1.2188h-1.0312l3.0938-5.375zm-24.688,1.9062c0.85917,0.005,1.7203,0.0209,2.5938,0.0625,0.04235,0.002,0.08262-0.002,0.125,0,0.03121,0.002,0.06254,0.002,0.09375,0,0.02051,0.001,0.04199-0.001,0.0625,0,1.2503,0.0648,2.5117,0.17647,3.7812,0.3125-0.14746,5.3305,1.9572,8.4699,4.25,10.656,1.945,1.8547,3.9044,3.1388,4.9375,4.6562-0.16791,0.00096-0.33112-0.003-0.5,0-2.2813,0.0429-4.6602,0.30024-7.125,0.78125-0.11216,0.0219-0.23122,0.0396-0.34375,0.0625-1.0467-2.6247-3.6231-4.2537-5.75-6.5-2.1325-2.2522-3.9087-5.048-3.75-10,0.53953-0.0113,1.0801-0.0346,1.625-0.0312zm2.375,0.5-0.46875,0.5625,0,0.21875,0.125,1.5625,0.03125,0.0625,0,0.0625,0.4375,0.5625,0.75-0.0312,0.40625-0.59375-0.03125-0.21875,0-0.0312,0-0.0312-0.125-1.4688-0.40625-0.625-0.71875-0.0312zm5.9062,0.0625c3.8789,0.48443,7.8397,1.2786,11.844,2.25l-0.59375,1.0625a0.80008,0.80008,0,0,0,0.6875,1.1875h1.0312l-2.4375,4.2188a0.80008,0.80008,0,0,0,0.6875,1.1875h3.0938v5.7812c-1.5822-0.27663-3.2236-0.42866-4.9062-0.5-1.103-2.5014-3.6247-3.908-5.6875-5.875-2.0943-1.9971-3.8269-4.4989-3.7188-9.3125zm-4.4062,4.5625-0.71875,0.15625-0.28125,0.6875,0.0625,0.25,0.25,0.5625,0.03125,0.0625,0.46875,0.875,0.59375,0.40625,0.6875-0.25,0.1875-0.6875-0.0625-0.25-0.4375-0.78125,0-0.0312-0.03125-0.0312-0.21875-0.5-0.53125-0.46875zm2.3438,3.9375-0.59375,0.4375,0.03125,0.71875,0.15625,0.1875,1.1875,1.0938,0.6875,0.21875,0.5625-0.46875-0.03125-0.71875-0.125-0.1875-1.1875-1.0938-0.6875-0.1875zm3.5625,3.2812-0.625,0.375-0.03125,0.75,0.125,0.1875,0.0625,0.0937,0.0625,0.0625,0.3125,0.46875,0,0.0312,0.0625,0.0625,0.25,0.46875,0.5625,0.4375,0.71875-0.25,0.21875-0.6875-0.09375-0.21875-0.28125-0.59375-0.0625-0.0937-0.4375-0.59375-0.0625-0.0937-0.125-0.15625-0.65625-0.25zm27.5,11.156-0.21875,0.125-1.2812,0.9687-0.3125,0.6563,0.34375,0.625,0.71875,0.094,0.21875-0.094,1.2812-0.9688,0.3125-0.6562-0.34375-0.6563-0.71875-0.094zm5.7812,2.8125a0.80008,0.80008,0,0,0,-0.34375,0.1562c-7.6089,5.8255-17.604,12.638-23.844,24.312a0.80008,0.80008,0,1,0,1.4062,0.75c5.9024-11.043,15.316-17.624,22.906-23.406,2.0055,1.621,3.891,3.2817,5.6562,4.9375a0.80008,0.80008,0,1,0,1.0938,-1.1563c-1.8771-1.7606-3.8915-3.5445-6.0625-5.2812a0.80008,0.80008,0,0,0,-0.125,-0.125,0.80008,0.80008,0,0,0,-0.125,-0.062,0.80008,0.80008,0,0,0,-0.09375,-0.062,0.80008,0.80008,0,0,0,-0.0625,-0.031,0.80008,0.80008,0,0,0,-0.0625,0,0.80008,0.80008,0,0,0,-0.0625,-0.031,0.80008,0.80008,0,0,0,-0.28125,0zm-9.625,0.094-0.1875,0.125-1.2812,0.9688-0.3125,0.6562,0.34375,0.625,0.71875,0.094,0.21875-0.094,1.2812-0.9687,0.3125-0.6563-0.375-0.6562-0.71875-0.094zm-3.8125,2.9375-0.1875,0.125-1.25,1-0.3125,0.6563,0.375,0.6562,0.71875,0.062,0.21875-0.125,1.25-1,0.28125-0.6562-0.34375-0.625-0.75-0.094zm-3.7188,3.0938-0.21875,0.125-1.0312,0.9375-0.03125,0.031-0.125,0.125-0.25,0.6875,0.40625,0.5938,0.71875,0.031,0.21875-0.1562,0.125-0.125,1.0312-0.9063,0.28125-0.6875-0.40625-0.625-0.71875-0.031zm-3.5312,3.3125-0.21875,0.125-0.625,0.6562-0.03125,0.031-0.46875,0.5-0.1875,0.6875,0.4375,0.5937,0.75-0.031,0.1875-0.1563,0.4375-0.5,0.03125-0.031,0.625-0.5938,0.21875-0.7187-0.4375-0.5625-0.71875,0zm-2.5625,3.5-0.75,0.062-0.15625,0.1562-0.375,0.4063,0,0.031-0.65625,0.8438-0.15625,0.7187,0.5,0.5313,0.71875-0.094,0.1875-0.1562,0.625-0.8125,0.03125-0.031,0.3125-0.375,0.1875-0.7187-0.46875-0.5625zm-2.9688,3.8125-0.71875,0.125-0.1875,0.1562-0.1875,0.2813,0,0.031-0.6875,1.0625-0.09375,0.7188,0.5625,0.5,0.71875-0.1563,0.15625-0.1875,0.65625-1.0625,0.03125-0.031,0.15625-0.2188,0.09375-0.7187-0.5-0.5zm-2.5938,4.0625-0.71875,0.1875-0.125,0.1875-0.15625,0.25-0.03125,0.75,0.5625,0.4375,0.71875-0.1875,0.15625-0.1875,0.125-0.25,0.03125-0.75-0.5625-0.4375z"/></g></svg>