<svg xmlns="http://www.w3.org/2000/svg" xmlns:xlink="http://www.w3.org/1999/xlink" version="1.1" x="0px" y="0px" viewBox="0 0 48 60" enable-background="new 0 0 48 48" xml:space="preserve"><g><path d="M4,0v48h40V0H4z M12,1c0.553,0,1,0.447,1,1s-0.447,1-1,1s-1-0.447-1-1S11.447,1,12,1z M9,1c0.553,0,1,0.447,1,1   S9.553,3,9,3S8,2.553,8,2S8.447,1,9,1z M6,1c0.553,0,1,0.447,1,1S6.553,3,6,3S5,2.553,5,2S5.447,1,6,1z M43,47H5V4h38V47z"/><rect x="17" y="12" width="14" height="1"/><rect x="17" y="10" width="16" height="1"/><rect x="17" y="7" width="9" height="2"/><rect x="14" y="27" width="13" height="1"/><rect x="14" y="25" width="15" height="1"/><rect x="14" y="22" width="9" height="2"/><path d="M9.024,14.119C9.02,14.078,9,14.042,9,14v-1c0-0.55,0.45-1,1-1h3c0.55,0,1,0.45,1,1v1c0,0.042-0.02,0.078-0.024,0.119   C14.897,13.387,15.5,12.269,15.5,11c0-2.209-1.791-4-4-4s-4,1.791-4,4C7.5,12.269,8.103,13.387,9.024,14.119z M11.5,8   C12.328,8,13,8.672,13,9.5S12.328,11,11.5,11S10,10.328,10,9.5S10.672,8,11.5,8z"/><path d="M31.5,26c0,1.269,0.603,2.387,1.524,3.119C33.02,29.078,33,29.042,33,29v-1c0-0.55,0.45-1,1-1h3c0.55,0,1,0.45,1,1v1   c0,0.042-0.02,0.078-0.024,0.119C38.897,28.387,39.5,27.269,39.5,26c0-2.209-1.791-4-4-4S31.5,23.791,31.5,26z M37,24.5   c0,0.828-0.672,1.5-1.5,1.5S34,25.328,34,24.5s0.672-1.5,1.5-1.5S37,23.672,37,24.5z"/><path d="M11.5,37c-2.209,0-4,1.791-4,4c0,1.269,0.603,2.387,1.524,3.119C9.02,44.078,9,44.042,9,44v-1c0-0.55,0.45-1,1-1h3   c0.55,0,1,0.45,1,1v1c0,0.042-0.02,0.078-0.024,0.119C14.897,43.387,15.5,42.269,15.5,41C15.5,38.791,13.709,37,11.5,37z M11.5,41   c-0.828,0-1.5-0.672-1.5-1.5s0.672-1.5,1.5-1.5s1.5,0.672,1.5,1.5S12.328,41,11.5,41z"/><rect x="17" y="42" width="14" height="1"/><rect x="17" y="40" width="16" height="1"/><rect x="17" y="14" width="16" height="1"/><rect x="14" y="29" width="15" height="1"/><rect x="17" y="44" width="16" height="1"/><rect x="17" y="37" width="9" height="2"/><circle cx="7.5" cy="18.5" r="0.5"/><circle cx="9.5" cy="18.5" r="0.5"/><circle cx="11.5" cy="18.5" r="0.5"/><circle cx="13.5" cy="18.5" r="0.5"/><circle cx="15.5" cy="18.5" r="0.5"/><circle cx="17.5" cy="18.5" r="0.5"/><circle cx="19.5" cy="18.5" r="0.5"/><circle cx="21.5" cy="18.5" r="0.5"/><circle cx="23.5" cy="18.5" r="0.5"/><circle cx="25.5" cy="18.5" r="0.5"/><circle cx="27.5" cy="18.5" r="0.5"/><circle cx="29.5" cy="18.5" r="0.5"/><circle cx="31.5" cy="18.5" r="0.5"/><circle cx="33.5" cy="18.5" r="0.5"/><circle cx="35.5" cy="18.5" r="0.5"/><circle cx="37.5" cy="18.5" r="0.5"/><circle cx="39.5" cy="18.5" r="0.5"/><circle cx="7.5" cy="33.5" r="0.5"/><circle cx="9.5" cy="33.5" r="0.5"/><circle cx="11.5" cy="33.5" r="0.5"/><circle cx="13.5" cy="33.5" r="0.5"/><circle cx="15.5" cy="33.5" r="0.5"/><circle cx="17.5" cy="33.5" r="0.5"/><circle cx="19.5" cy="33.5" r="0.5"/><circle cx="21.5" cy="33.5" r="0.5"/><circle cx="23.5" cy="33.5" r="0.5"/><circle cx="25.5" cy="33.5" r="0.5"/><circle cx="27.5" cy="33.5" r="0.5"/><circle cx="29.5" cy="33.5" r="0.5"/><circle cx="31.5" cy="33.5" r="0.5"/><circle cx="33.5" cy="33.5" r="0.5"/><circle cx="35.5" cy="33.5" r="0.5"/><circle cx="37.5" cy="33.5" r="0.5"/><circle cx="39.5" cy="33.5" r="0.5"/></g></svg>