<svg xmlns="http://www.w3.org/2000/svg" xmlns:xlink="http://www.w3.org/1999/xlink" xmlns:sketch="http://www.bohemiancoding.com/sketch/ns" viewBox="0 0 30 37.5" version="1.1" x="0px" y="0px"><title>travel_011-itinerary-journey-location-map-plan</title><desc>Created with Sketch.</desc><g stroke="none" stroke-width="1" fill="none" fill-rule="evenodd" sketch:type="MSPage"><g sketch:type="MSArtboardGroup" transform="translate(-45.000000, -90.000000)" fill="#000000"><path d="M46,118.42 C46,118.776536 46.3624912,119.018506 46.6917631,118.881765 L55.699646,115.142761 L64.1036914,118.626932 C64.2264511,118.677912 64.364458,118.677912 64.4872177,118.626932 L73.6917631,114.804442 C73.8783763,114.726944 74,114.544742 74,114.342677 L74,91 C74,90.6434637 73.6375088,90.401494 73.3082369,90.538235 L64.2954712,94.2799988 L55.8963086,90.7930677 C55.7735489,90.7420877 55.635542,90.7420877 55.5127823,90.7930677 L46.3082369,94.6155584 C46.1216237,94.6930557 46,94.8752584 46,95.0773234 L46,118.42 Z M47,95.40979 L55.6939697,91.7962646 L64.1036914,95.2842557 C64.2264511,95.3352357 64.364458,95.3352357 64.4872177,95.2842557 L73,91.75 L73,114.014954 L64.2999992,117.620003 L55.8963086,114.135744 C55.7735489,114.084764 55.635542,114.084764 55.5127823,114.135744 L47,117.669998 L47,95.40979 Z M69.2839464,103.874619 C70.2806513,103.545754 71,102.606883 71,101.5 C71,100.119288 69.8807119,99 68.5,99 C67.1192881,99 66,100.119288 66,101.5 C66,102.606883 66.7193487,103.545754 67.7160536,103.874619 L68.2579279,106.068211 C68.3929825,106.614933 68.6083794,106.60942 68.7420721,106.068211 L69.2839464,103.874619 Z M68.5,103 C69.3284271,103 70,102.328427 70,101.5 C70,100.671573 69.3284271,100 68.5,100 C67.6715729,100 67,100.671573 67,101.5 C67,102.328427 67.6715729,103 68.5,103 Z M49.7291714,108.178398 C49.9781851,108.297758 50.2768109,108.192653 50.3961706,107.943639 C50.5155304,107.694625 50.4104251,107.395999 50.1614113,107.276639 C49.9658604,107.182906 49.8213044,107.107008 49.7449066,107.064086 C49.5041581,106.928828 49.1993445,107.014345 49.0640863,107.255093 C48.9288281,107.495842 49.0143449,107.800656 49.2550934,107.935914 C49.3493431,107.988865 49.5127564,108.074664 49.7291714,108.178398 Z M52.2855986,108.965611 C52.5609439,108.986576 52.8011513,108.780361 52.8221168,108.505015 C52.8430823,108.22967 52.6368667,107.989463 52.3615214,107.968497 C52.2265021,107.958216 52.0815402,107.93723 51.9280186,107.906085 C51.6573891,107.851183 51.3934934,108.026064 51.3385912,108.296694 C51.2836889,108.567323 51.4585705,108.831219 51.7292,108.886121 C51.9216166,108.925157 52.1072425,108.95203 52.2855986,108.965611 Z M54.3859911,106.767436 C54.3866624,106.491294 54.1633497,106.266893 53.8872081,106.266222 C53.6110666,106.265551 53.3866654,106.488863 53.3859941,106.765005 C53.3855858,106.93295 53.3782254,107.078481 53.3630435,107.206901 C53.3306236,107.481134 53.5266516,107.729725 53.8008842,107.762145 C54.0751169,107.794565 54.3237079,107.598537 54.3561278,107.324304 C54.376247,107.154121 54.3854956,106.971255 54.3859911,106.767436 Z M54.3836617,104.361979 C54.4424361,104.092164 54.2713539,103.82579 54.0015388,103.767015 C53.7317238,103.708241 53.4653493,103.879323 53.4065749,104.149138 C53.3681132,104.325704 53.3441911,104.515259 53.3321232,104.722449 C53.3160665,104.998124 53.5265288,105.234619 53.8022039,105.250676 C54.0778791,105.266733 54.3143745,105.056271 54.3304313,104.780596 C54.3396444,104.622418 54.357156,104.483659 54.3836617,104.361979 Z M55.8225153,103.510674 C56.0975205,103.485639 56.3001612,103.242408 56.275126,102.967403 C56.2500908,102.692398 56.00686,102.489757 55.7318548,102.514792 C55.5457064,102.531738 55.3638046,102.557265 55.1867142,102.591585 C54.9156157,102.644123 54.7384376,102.906483 54.7909758,103.177581 C54.843514,103.448679 55.1058733,103.625858 55.3769717,103.573319 C55.520553,103.545494 55.6692429,103.524627 55.8225153,103.510674 Z M58.1528311,103.751936 C58.4192873,103.824433 58.6940625,103.667197 58.7665587,103.400741 C58.839055,103.134285 58.6818193,102.859509 58.4153631,102.787013 C58.2447931,102.740605 58.0729475,102.699182 57.9007305,102.663073 C57.6304652,102.606404 57.3654332,102.779559 57.3087649,103.049824 C57.2520966,103.320089 57.4252512,103.585121 57.6955164,103.64179 C57.8483737,103.67384 58.0011097,103.710657 58.1528311,103.751936 Z M60.2646339,104.702045 C60.4883234,104.863963 60.8009205,104.813888 60.9628391,104.590199 C61.1247577,104.366509 61.0746825,104.053912 60.850993,103.891994 C60.7098983,103.789862 60.5550827,103.689928 60.3886359,103.593372 C60.1497745,103.454808 59.8438111,103.536116 59.7052476,103.774977 C59.5666841,104.013838 59.6479915,104.319802 59.8868529,104.458365 C60.0249878,104.538497 60.1516158,104.620236 60.2646339,104.702045 Z M60.5952493,106.247639 C60.437269,106.474127 60.4928054,106.7858 60.7192935,106.94378 C60.9457815,107.101761 61.2574547,107.046224 61.415435,106.819736 C61.5397308,106.64154 61.6385271,106.469663 61.7128517,106.294865 C61.8209059,106.040741 61.702493,105.747138 61.4483692,105.639084 C61.1942454,105.531029 60.9006422,105.649442 60.792588,105.903566 C60.7476906,106.009157 60.6825569,106.122471 60.5952493,106.247639 Z M59.0744492,108.543353 C59.0249124,108.815016 59.2049811,109.075399 59.4766439,109.124936 C59.7483068,109.174473 60.0086906,108.994404 60.0582275,108.722742 C60.076671,108.621596 60.1161369,108.513969 60.1782139,108.396583 C60.3073064,108.152473 60.2140662,107.849933 59.9699562,107.72084 C59.7258461,107.591748 59.4233056,107.684988 59.2942131,107.929098 C59.186817,108.132181 59.1124383,108.335019 59.0744492,108.543353 Z M60.9215938,110.902337 C61.1949579,110.94141 61.448238,110.751479 61.4873108,110.478115 C61.5263835,110.204751 61.3364529,109.951471 61.0630888,109.912398 C60.9299188,109.893364 60.8121031,109.861274 60.7094675,109.816669 C60.4562079,109.706605 60.1616756,109.822687 60.0516111,110.075947 C59.9415467,110.329207 60.0576293,110.623739 60.3108889,110.733803 C60.4988899,110.815507 60.7029336,110.871083 60.9215938,110.902337 Z M63.6478964,110.435946 C63.9064839,110.339059 64.0375677,110.05089 63.9406804,109.792302 C63.8437931,109.533715 63.5556239,109.402631 63.2970365,109.499518 C63.1432558,109.557137 62.9933404,109.609395 62.8475738,109.656078 C62.5845887,109.7403 62.4396728,110.021768 62.5238953,110.284753 C62.6081177,110.547738 62.889585,110.692654 63.1525702,110.608431 C63.3141513,110.556684 63.4793151,110.49911 63.6478964,110.435946 Z M66.0442834,109.301624 C66.2856617,109.167493 66.3726027,108.863082 66.2384717,108.621704 C66.1043406,108.380326 65.7999301,108.293385 65.5585519,108.427516 C65.4147832,108.507406 65.2713278,108.585213 65.1284301,108.660699 C64.8842623,108.789683 64.7908867,109.092181 64.9198699,109.336349 C65.0488531,109.580517 65.3513518,109.673893 65.5955196,109.544909 C65.7447803,109.466062 65.8944411,109.384889 66.0442834,109.301624 Z M68.1670106,107.992532 C68.3948546,107.836514 68.453081,107.525332 68.2970627,107.297488 C68.1410445,107.069644 67.8298626,107.011418 67.6020186,107.167436 C67.4865024,107.246537 67.3501136,107.337849 67.1953577,107.438862 C66.9641165,107.5898 66.8990176,107.899617 67.0499551,108.130858 C67.2008926,108.362099 67.5107096,108.427198 67.7419508,108.27626 C67.9030617,108.171099 68.0455632,108.075695 68.1670106,107.992532 Z" sketch:type="MSShapeGroup"/></g></g></svg>